<svg width="17" height="19" viewBox="0 0 17 19" fill="none" xmlns="http://www.w3.org/2000/svg">
<path d="M8.66665 11.8766V13.6183C7.91241 13.3517 7.10521 13.2699 6.31282 13.3798C5.52042 13.4897 4.76598 13.7882 4.11284 14.2502C3.4597 14.7121 2.92693 15.324 2.55928 16.0345C2.19163 16.745 1.99983 17.5333 1.99998 18.3333L0.333313 18.3325C0.333055 17.3149 0.565747 16.3107 1.01356 15.397C1.46138 14.4832 2.11243 13.6841 2.91683 13.0608C3.72123 12.4376 4.65763 12.0068 5.65427 11.8014C6.65092 11.5959 7.68136 11.6214 8.66665 11.8758V11.8766ZM6.99998 10.8333C4.23748 10.8333 1.99998 8.59581 1.99998 5.83331C1.99998 3.07081 4.23748 0.833313 6.99998 0.833313C9.76248 0.833313 12 3.07081 12 5.83331C12 8.59581 9.76248 10.8333 6.99998 10.8333ZM6.99998 9.16665C8.84165 9.16665 10.3333 7.67498 10.3333 5.83331C10.3333 3.99165 8.84165 2.49998 6.99998 2.49998C5.15831 2.49998 3.66665 3.99165 3.66665 5.83331C3.66665 7.67498 5.15831 9.16665 6.99998 9.16665ZM12 14.1666V11.6666H13.6666V14.1666H16.1666V15.8333H13.6666V18.3333H12V15.8333H9.49998V14.1666H12Z" fill="#16113D"/>
</svg>
