<svg width="20" height="17" viewBox="0 0 20 17" fill="none" xmlns="http://www.w3.org/2000/svg">
<path d="M0.833329 11.0834C0.832816 10.1629 1.06701 9.25753 1.51379 8.45278C1.96056 7.64803 2.60516 6.97049 3.38666 6.48419C3.59292 4.87593 4.37816 3.39795 5.59543 2.32683C6.81269 1.2557 8.37856 0.664856 10 0.664856C11.6214 0.664856 13.1873 1.2557 14.4046 2.32683C15.6218 3.39795 16.4071 4.87593 16.6133 6.48419C17.5827 7.08727 18.3367 7.9812 18.7677 9.03834C19.1988 10.0955 19.2848 11.2618 19.0134 12.3707C18.7421 13.4797 18.1274 14.4745 17.2569 15.2132C16.3865 15.952 15.305 16.3968 14.1667 16.4842L5.83333 16.5C3.03666 16.2717 0.833329 13.935 0.833329 11.0834ZM14.04 14.8225C14.8282 14.7619 15.5771 14.4538 16.1797 13.9421C16.7823 13.4305 17.2078 12.7415 17.3954 11.9736C17.583 11.2056 17.5231 10.3981 17.2243 9.66618C16.9256 8.9343 16.4031 8.31557 15.7317 7.89836L15.0592 7.47919L14.9592 6.69419C14.8034 5.48893 14.2141 4.38164 13.3013 3.57927C12.3886 2.77689 11.2149 2.33435 9.99958 2.33435C8.7843 2.33435 7.6106 2.77689 6.69785 3.57927C5.7851 4.38164 5.19577 5.48893 5.04 6.69419L4.94 7.47919L4.26916 7.89836C3.59774 8.31552 3.07531 8.93418 2.77649 9.66599C2.47767 10.3978 2.41774 11.2053 2.60525 11.9732C2.79277 12.7411 3.21814 13.4301 3.82062 13.9418C4.4231 14.4535 5.17187 14.7618 5.96 14.8225L6.10416 14.8334H13.8958L14.04 14.8225ZM10.8333 9.00003H13.3333L10 13.1667L6.66666 9.00003H9.16666V5.66669H10.8333V9.00003Z" fill="#16113D"/>
</svg>
