<svg width="18" height="18" viewBox="0 0 18 18" fill="none" xmlns="http://www.w3.org/2000/svg">
<g clip-path="url(#clip0_223_162)">
<path d="M7.4375 5.2915V6.17171H17.3242C17.3104 5.88786 17.2807 5.529 17.1745 5.2915" fill="#EC1C24"/>
<path d="M16.7083 4.41113H7.4375V5.29134H17.1745C17.0687 4.96296 16.9115 4.66348 16.7083 4.41113" fill="#E6E7E8"/>
<path d="M14.7292 3.53125H7.4375V4.41146H16.7083C16.2737 3.86719 15.5583 3.53125 14.7292 3.53125Z" fill="#EC1C24"/>
<path d="M17.3242 6.17139H7.4375V7.0516H17.3333V6.46488C17.3333 6.41253 17.3299 6.36149 17.3284 6.31019C17.3273 6.29613 17.3258 6.25993 17.3242 6.17139" fill="#E6E7E8"/>
<path d="M7.4375 7.93197H17.3333V7.05176H7.4375V7.93197Z" fill="#EC1C24"/>
<path d="M7.4375 8.81234H17.3333V7.93213H7.4375V8.81234" fill="#E6E7E8"/>
<path d="M7.4375 8.81201H17.3333V9.69222H7.4375V8.81201Z" fill="#EC1C24"/>
<path d="M0.667023 9.6925V10.5727H17.3337V9.6925H7.43786H0.667023Z" fill="#E6E7E8"/>
<path d="M0.667023 10.5726H17.3337V11.4528H0.667023V10.5726Z" fill="#EC1C24"/>
<path d="M0.668325 11.9942C0.668325 11.9942 0.665981 12.2074 0.672231 12.333H17.3285C17.3358 12.2043 17.3324 11.9942 17.3324 11.9942L17.3337 11.4528H0.667023L0.668325 11.9942Z" fill="#E6E7E8"/>
<path d="M3.27083 14.9891H14.7292C15.5607 14.9891 16.2518 14.687 16.724 14.0933H1.27344C1.76094 14.7 2.4651 14.9891 3.26953 14.9891" fill="#EC1C24"/>
<path d="M1.27474 14.0936H16.7253C16.9312 13.8319 17.0851 13.5331 17.1784 13.2134H0.824219C0.919296 13.5321 1.07248 13.8305 1.27604 14.0936" fill="#E6E7E8"/>
<path d="M0.822917 13.2132H17.1771C17.2624 12.9269 17.3131 12.6314 17.3281 12.333H0.671875C0.697656 12.634 0.721615 12.8614 0.822917 13.2132Z" fill="#EC1C24"/>
<path d="M7.43783 3.53125H3.27116C1.54538 3.53125 0.666992 4.8138 0.666992 6.39583V9.69271H7.43783V3.53125Z" fill="#176496"/>
<path d="M1.39568 5.08727L1.53735 4.97841L1.67876 5.08727L1.62381 4.91227L1.7647 4.80524H1.59074L1.53683 4.62946L1.48318 4.80524H1.30949L1.45089 4.91227L1.39568 5.08727ZM2.33162 5.08727L2.47329 4.97841L2.6147 5.08727L2.56001 4.91227L2.70063 4.80524H2.52693L2.47303 4.62946L2.41938 4.80524H2.24516L2.38657 4.91227L2.33162 5.08727ZM3.36417 5.08727L3.50558 4.97841L3.64725 5.08727L3.5923 4.91227L3.73292 4.80524H3.56027L3.50558 4.62946L3.45167 4.80524H3.27902L3.41886 4.91227L3.36417 5.08727ZM4.38917 5.08727L4.53058 4.97841L4.67225 5.08727L4.61756 4.91227L4.75818 4.80524H4.58371L4.53058 4.62946L4.47693 4.80524H4.30298L4.44412 4.91227L4.38917 5.08727ZM5.41782 5.08727L5.55949 4.97841L5.70089 5.08727L5.64621 4.91227L5.78709 4.80524H5.61287L5.55923 4.62946L5.50558 4.80524H5.33188L5.47251 4.91227L5.41782 5.08727ZM1.89386 5.5443L2.03527 5.43571L2.17667 5.5443L2.12225 5.36956L2.26287 5.26253H2.08891L2.03501 5.08701L1.98214 5.26253H1.80766L1.94855 5.36956L1.89386 5.5443ZM2.83006 5.5443L2.97147 5.43571L3.11287 5.5443L3.05818 5.36956L3.19881 5.26253H3.02381L2.97147 5.08701L2.91756 5.26253H2.74386L2.88475 5.36956L2.83006 5.5443ZM3.86261 5.5443L4.00376 5.43571L4.14516 5.5443L4.09048 5.36956L4.23136 5.26253H4.05766L4.00376 5.08701L3.94985 5.26253H3.77589L3.91678 5.36956L3.86261 5.5443ZM4.88709 5.5443L5.02876 5.43571L5.17042 5.5443L5.11496 5.36956L5.2561 5.26253H5.0824L5.0285 5.08701L4.97511 5.26253H4.80115L4.94204 5.36956L4.88709 5.5443ZM5.91704 5.5443L6.0574 5.43571L6.19881 5.5443L6.1436 5.36956L6.28475 5.26253H6.11131L6.05714 5.08701L6.00376 5.26253H5.8298L5.97068 5.36956L5.91704 5.5443ZM6.49699 5.08727L6.63839 4.97841L6.78006 5.08727L6.72511 4.91227L6.86574 4.80524H6.69308L6.63813 4.62946L6.58449 4.80524H6.40923L6.55167 4.91227L6.49699 5.08727ZM1.38188 8.74456L1.52355 8.63701L1.66496 8.74456L1.61027 8.57112L1.75089 8.46383L1.5772 8.46435L1.52303 8.28883L1.4699 8.46435L1.29568 8.46383L1.43657 8.57112L1.38188 8.74456ZM2.31808 8.74456L2.45949 8.63701L2.60115 8.74456L2.54621 8.57112L2.68683 8.46383L2.51339 8.46435L2.45923 8.28883L2.40584 8.46435L2.23214 8.46383L2.37277 8.57112L2.31808 8.74456ZM3.35063 8.74456L3.49204 8.63701L3.63371 8.74456L3.57876 8.57112L3.71938 8.46383L3.54464 8.46435L3.49178 8.28883L3.43813 8.46435L3.26443 8.46383L3.40532 8.57112L3.35063 8.74456ZM4.37563 8.74456L4.51704 8.63701L4.65845 8.74456L4.60454 8.57112L4.74438 8.46383L4.57042 8.46435L4.51678 8.28883L4.46313 8.46435L4.28943 8.46383L4.43006 8.57112L4.37563 8.74456ZM5.40402 8.74456L5.54568 8.63701L5.68735 8.74456L5.63318 8.57112L5.77303 8.46383L5.59933 8.46435L5.54542 8.28883L5.49204 8.46435L5.31808 8.46383L5.45871 8.57112L5.40402 8.74456ZM6.48318 8.74456L6.62459 8.63701L6.76626 8.74456L6.71131 8.57112L6.85219 8.46383L6.67746 8.46435L6.62433 8.28883L6.57068 8.46435L6.39621 8.46383L6.53787 8.57112L6.48318 8.74456ZM1.39568 6.00185L1.53735 5.893L1.67876 6.00185L1.62381 5.82685L1.7647 5.71982L1.59074 5.72034L1.53683 5.5443L1.48318 5.72034L1.30949 5.71982L1.45089 5.82685L1.39568 6.00185ZM2.33162 6.00185L2.47329 5.893L2.6147 6.00185L2.56001 5.82685L2.70063 5.71982L2.52693 5.72034L2.47303 5.5443L2.41938 5.72034L2.24516 5.71982L2.38657 5.82685L2.33162 6.00185ZM3.36417 6.00185L3.50558 5.893L3.64725 6.00185L3.5923 5.82685L3.73292 5.71982L3.56027 5.72034L3.50558 5.5443L3.45167 5.72034L3.27902 5.71982L3.41886 5.82685L3.36417 6.00185ZM4.38917 6.00185L4.53058 5.893L4.67225 6.00185L4.61756 5.82685L4.75818 5.71982L4.58371 5.72034L4.53058 5.5443L4.47693 5.72034L4.30298 5.71982L4.44412 5.82685L4.38917 6.00185ZM5.41782 6.00185L5.55949 5.893L5.70089 6.00185L5.64621 5.82685L5.78709 5.71982L5.61287 5.72034L5.55923 5.5443L5.50558 5.72034L5.33188 5.71982L5.47251 5.82685L5.41782 6.00185ZM1.89386 6.45914L2.03527 6.35055L2.17667 6.45914L2.12225 6.2844L2.26287 6.17685H2.08891L2.03501 6.00185L1.98214 6.17685H1.80766L1.94855 6.2844L1.89386 6.45914ZM2.83006 6.45914L2.97147 6.35055L3.11287 6.45914L3.05818 6.2844L3.19881 6.17685H3.02381L2.97147 6.00185L2.91756 6.17685H2.74386L2.88475 6.2844L2.83006 6.45914ZM3.86261 6.45914L4.00376 6.35055L4.14516 6.45914L4.09048 6.2844L4.23136 6.17685H4.05766L4.00376 6.00185L3.94985 6.17685H3.77589L3.91678 6.2844L3.86261 6.45914ZM4.88709 6.45914L5.02876 6.35055L5.17042 6.45914L5.11496 6.2844L5.2561 6.17685H5.0824L5.0285 6.00185L4.97511 6.17685H4.80115L4.94204 6.2844L4.88709 6.45914ZM5.91704 6.45914L6.0574 6.35055L6.19881 6.45914L6.1436 6.2844L6.28475 6.17685H6.11131L6.05714 6.00185L6.00376 6.17685H5.8298L5.97068 6.2844L5.91704 6.45914ZM6.49699 6.00185L6.63839 5.893L6.78006 6.00185L6.72511 5.82685L6.86574 5.71982L6.69308 5.72034L6.63813 5.5443L6.58449 5.72034L6.40923 5.71982L6.55167 5.82685L6.49699 6.00185ZM1.38188 6.91643L1.52355 6.80784L1.66496 6.91643L1.61001 6.74196L1.75089 6.63466L1.57693 6.63518L1.52303 6.45914L1.4699 6.63518L1.29568 6.63466L1.43657 6.74196L1.38188 6.91643ZM2.31808 6.91643L2.45949 6.80784L2.60115 6.91643L2.54621 6.74196L2.68683 6.63466L2.51339 6.63518L2.45923 6.45914L2.40584 6.63518L2.23214 6.63466L2.37251 6.74196L2.31808 6.91643ZM3.35063 6.91643L3.49204 6.80784L3.63344 6.91643L3.57876 6.74196L3.71938 6.63466L3.54464 6.63518L3.49178 6.45914L3.43813 6.63518L3.26443 6.63466L3.40532 6.74196L3.35063 6.91643ZM4.37563 6.91643L4.51678 6.80784L4.65845 6.91643L4.60454 6.74196L4.74438 6.63466L4.57042 6.63518L4.51678 6.45914L4.46313 6.63518L4.28943 6.63466L4.43006 6.74196L4.37563 6.91643ZM5.40402 6.91643L5.54568 6.80784L5.68709 6.91643L5.63318 6.74196L5.77303 6.63466L5.59907 6.63518L5.54542 6.45914L5.49204 6.63518L5.31808 6.63466L5.45871 6.74196L5.40402 6.91643ZM1.88006 7.37373L2.02147 7.26539L2.16287 7.37373L2.10845 7.20029L2.24881 7.09248H2.07485L2.02121 6.91643L1.96782 7.09248H1.79386L1.93475 7.20029L1.88006 7.37373ZM2.81626 7.37373L2.95766 7.26539L3.09907 7.37373L3.04438 7.20029L3.18501 7.09248H3.01079L2.9574 6.91643L2.90376 7.09248H2.7298L2.87095 7.20029L2.81626 7.37373ZM3.84907 7.37373L3.98996 7.26539L4.13162 7.37373L4.07589 7.20029L4.21756 7.09248H4.04386L3.98996 6.91643L3.93631 7.09248H3.76235L3.90324 7.20029L3.84907 7.37373ZM4.87277 7.37373L5.01496 7.26539L5.15662 7.37373L5.10193 7.20029L5.2423 7.09248H5.0686L5.0147 6.91643L4.96131 7.09248H4.78735L4.92824 7.20029L4.87277 7.37373ZM5.90141 7.37373L6.0436 7.26539L6.18527 7.37373L6.13032 7.20029L6.27147 7.09248H6.09777L6.0436 6.91643L5.98996 7.09248H5.816L5.95688 7.20029L5.90141 7.37373ZM6.48318 6.91643L6.62459 6.80784L6.766 6.91643L6.71131 6.74196L6.85219 6.63466L6.67746 6.63518L6.62433 6.45914L6.57068 6.63518L6.39621 6.63466L6.53787 6.74196L6.48318 6.91643ZM1.38188 7.83128L1.52355 7.72373L1.66496 7.83128L1.61001 7.65654L1.75089 7.54925L1.57693 7.54977L1.52303 7.37373L1.4699 7.54977L1.29568 7.54925L1.43657 7.65654L1.38188 7.83128ZM2.31808 7.83128L2.45949 7.72373L2.60115 7.83128L2.54621 7.65654L2.68683 7.54925L2.51339 7.54977L2.45923 7.37373L2.40584 7.54977L2.23214 7.54925L2.37251 7.65654L2.31808 7.83128ZM3.35063 7.83128L3.49204 7.72373L3.63344 7.83128L3.57876 7.65654L3.71938 7.54925L3.54464 7.54977L3.49178 7.37373L3.43813 7.54977L3.26443 7.54925L3.40532 7.65654L3.35063 7.83128ZM4.37563 7.83128L4.51678 7.72373L4.65845 7.83128L4.60454 7.65654L4.74438 7.54925L4.57042 7.54977L4.51678 7.37373L4.46313 7.54977L4.28943 7.54925L4.43006 7.65654L4.37563 7.83128ZM5.40402 7.83128L5.54568 7.72373L5.68709 7.83128L5.63318 7.65654L5.77303 7.54925L5.59907 7.54977L5.54542 7.37373L5.49204 7.54977L5.31808 7.54925L5.45871 7.65654L5.40402 7.83128ZM1.88006 8.28883L2.02147 8.17998L2.16287 8.28883L2.10845 8.11383L2.24881 8.00758H2.07485L2.02121 7.83128L1.96782 8.00758H1.79386L1.93475 8.11383L1.88006 8.28883ZM2.81626 8.28883L2.95766 8.17998L3.09907 8.28883L3.04438 8.11383L3.18501 8.00758H3.01079L2.9574 7.83128L2.90376 8.00758H2.7298L2.87095 8.11383L2.81626 8.28883ZM3.84907 8.28883L3.98996 8.17998L4.13162 8.28883L4.07589 8.11383L4.21756 8.00758H4.04386L3.98996 7.83128L3.93631 8.00758H3.76235L3.90324 8.11383L3.84907 8.28883ZM4.87277 8.28883L5.01496 8.17998L5.15662 8.28883L5.10193 8.11383L5.2423 8.00758H5.0686L5.0147 7.83128L4.96131 8.00758H4.78735L4.92824 8.11383L4.87277 8.28883ZM5.90141 8.28883L6.0436 8.17998L6.18527 8.28883L6.13032 8.11383L6.27147 8.00758H6.09777L6.0436 7.83128L5.98996 8.00758H5.816L5.95688 8.11383L5.90141 8.28883ZM6.48318 7.83128L6.62459 7.72373L6.766 7.83128L6.71131 7.65654L6.85219 7.54925L6.67746 7.54977L6.62433 7.37373L6.57068 7.54977L6.39621 7.54925L6.53787 7.65654L6.48318 7.83128Z" fill="white"/>
</g>
<defs>
<clipPath id="clip0_223_162">
<rect width="16.6667" height="16.6667" fill="white" transform="translate(0.666992 0.666504)"/>
</clipPath>
</defs>
</svg>
