<svg width="20" height="17" viewBox="0 0 20 17" fill="none" xmlns="http://www.w3.org/2000/svg">
<path d="M4.16665 6.49999C4.38766 6.49999 4.59962 6.58779 4.7559 6.74407C4.91218 6.90035 4.99998 7.11231 4.99998 7.33332C6.30926 7.33139 7.5808 7.77188 8.60831 8.58332H10.4166C11.5275 8.58332 12.525 9.06666 13.2116 9.83332H15.8333C16.621 9.83311 17.3927 10.0562 18.0588 10.4767C18.7248 10.8972 19.2581 11.4979 19.5966 12.2092C17.6258 14.81 14.435 16.5 10.8333 16.5C8.50831 16.5 6.54165 15.9975 4.94998 15.1183C4.89168 15.2792 4.78518 15.4182 4.64499 15.5163C4.50481 15.6144 4.33776 15.6669 4.16665 15.6667H1.66665C1.44563 15.6667 1.23367 15.5789 1.07739 15.4226C0.92111 15.2663 0.833313 15.0543 0.833313 14.8333V7.33332C0.833313 7.11231 0.92111 6.90035 1.07739 6.74407C1.23367 6.58779 1.44563 6.49999 1.66665 6.49999H4.16665ZM5.00081 8.99999L4.99998 13.185L5.03748 13.2117C6.53331 14.2617 8.48165 14.8333 10.8333 14.8333C13.3366 14.8333 15.6658 13.87 17.3625 12.225L17.4733 12.1142L17.3733 12.0308C16.9798 11.7226 16.5028 11.5397 16.0041 11.5058L15.8333 11.5H14.0741C14.1341 11.7683 14.1666 12.0467 14.1666 12.3333V13.1667H6.66665V11.5L12.325 11.4992L12.2966 11.4342C12.1369 11.1004 11.8913 10.8152 11.5849 10.6079C11.2785 10.4005 10.9225 10.2784 10.5533 10.2542L10.4166 10.25H7.97498C7.58774 9.85393 7.12521 9.53931 6.61458 9.32464C6.10396 9.10997 5.55556 8.99959 5.00165 8.99999H5.00081ZM3.33331 8.16666H2.49998V14H3.33331V8.16666ZM15 3.16666C15.663 3.16666 16.2989 3.43005 16.7677 3.89889C17.2366 4.36773 17.5 5.00362 17.5 5.66666C17.5 6.3297 17.2366 6.96558 16.7677 7.43442C16.2989 7.90326 15.663 8.16666 15 8.16666C14.3369 8.16666 13.7011 7.90326 13.2322 7.43442C12.7634 6.96558 12.5 6.3297 12.5 5.66666C12.5 5.00362 12.7634 4.36773 13.2322 3.89889C13.7011 3.43005 14.3369 3.16666 15 3.16666ZM15 4.83332C14.779 4.83332 14.567 4.92112 14.4107 5.0774C14.2544 5.23368 14.1666 5.44564 14.1666 5.66666C14.1666 5.88767 14.2544 6.09963 14.4107 6.25591C14.567 6.41219 14.779 6.49999 15 6.49999C15.221 6.49999 15.433 6.41219 15.5892 6.25591C15.7455 6.09963 15.8333 5.88767 15.8333 5.66666C15.8333 5.44564 15.7455 5.23368 15.5892 5.0774C15.433 4.92112 15.221 4.83332 15 4.83332ZM9.16665 0.666656C9.82969 0.666656 10.4656 0.930049 10.9344 1.39889C11.4033 1.86773 11.6666 2.50362 11.6666 3.16666C11.6666 3.8297 11.4033 4.46558 10.9344 4.93442C10.4656 5.40326 9.82969 5.66666 9.16665 5.66666C8.50361 5.66666 7.86772 5.40326 7.39888 4.93442C6.93004 4.46558 6.66665 3.8297 6.66665 3.16666C6.66665 2.50362 6.93004 1.86773 7.39888 1.39889C7.86772 0.930049 8.50361 0.666656 9.16665 0.666656ZM9.16665 2.33332C8.94563 2.33332 8.73367 2.42112 8.57739 2.5774C8.42111 2.73368 8.33331 2.94564 8.33331 3.16666C8.33331 3.38767 8.42111 3.59963 8.57739 3.75591C8.73367 3.91219 8.94563 3.99999 9.16665 3.99999C9.38766 3.99999 9.59962 3.91219 9.7559 3.75591C9.91218 3.59963 9.99998 3.38767 9.99998 3.16666C9.99998 2.94564 9.91218 2.73368 9.7559 2.5774C9.59962 2.42112 9.38766 2.33332 9.16665 2.33332Z" fill="#16113D"/>
</svg>
