<svg width="18" height="18" viewBox="0 0 18 18" fill="none" xmlns="http://www.w3.org/2000/svg">
<path d="M8.99999 17.3334C4.39749 17.3334 0.666656 13.6025 0.666656 9.00002C0.666656 4.39752 4.39749 0.666687 8.99999 0.666687C13.6025 0.666687 17.3333 4.39752 17.3333 9.00002C17.3333 13.6025 13.6025 17.3334 8.99999 17.3334ZM8.99999 15.6667C10.7681 15.6667 12.4638 14.9643 13.714 13.7141C14.9643 12.4638 15.6667 10.7681 15.6667 9.00002C15.6667 7.23191 14.9643 5.53622 13.714 4.28598C12.4638 3.03573 10.7681 2.33335 8.99999 2.33335C7.23188 2.33335 5.53619 3.03573 4.28594 4.28598C3.0357 5.53622 2.33332 7.23191 2.33332 9.00002C2.33332 10.7681 3.0357 12.4638 4.28594 13.7141C5.53619 14.9643 7.23188 15.6667 8.99999 15.6667V15.6667ZM8.99999 14V4.00002C10.3261 4.00002 11.5978 4.5268 12.5355 5.46449C13.4732 6.40217 14 7.67394 14 9.00002C14 10.3261 13.4732 11.5979 12.5355 12.5356C11.5978 13.4732 10.3261 14 8.99999 14Z" fill="#16113D"/>
</svg>
